<svg preserveAspectRatio="xMidYMid meet" data-bbox="0 0 1729.4 595.3" viewBox="0 0 1873.9 595.3" xmlns="http://www.w3.org/2000/svg" data-type="ugc" role="presentation" aria-hidden="true" aria-label="">
    <g>
        <path fill="#ec2027" d="M468 0v595.3H0V0h468z"></path>
        <path d="M493.4 222.2l-.9-11.4c4.3 0 10.3.3 17.6.9 7.3.7 11.8.9 13.1.9l41.2-1.9c22.5 0 40.1 3.9 52.8 11.6 12.7 7.7 19.2 22.2 19.2 43.6 0 21.1-7 37.4-21.3 48.6s-34.7 16.9-61.3 16.9H540l-.3 22.5c0 28.8.3 51.9.9 69.2-9.2 0-17.5.1-24.6.1h-26l3.5-52.1v-149h-.1zm93.3 48.1c0-14.6-3-25.2-8.9-31.7-6-6.5-15.6-9.7-29-9.7h-8.3v8.1l-.9 32.8v45.5c9.6 0 16.7-.7 21.3-1.9 4.5-1.2 10-4.7 16.4-10.6 6.3-5.7 9.4-16.5 9.4-32.5z"></path>
        <path d="M707.6 344.9c-7.7 0-13.4 2.4-16.8 7.3-3.4 4.9-5.1 13-5.1 24.1l1.4 46.6-15.6-.9c-.7 0-2.6.1-5.6.4-3 .3-6.4.4-10.3.4l1.5-52.4-1.5-51.5c1.8.3 4.1.5 6.9.8 2.8.3 5.6.4 8.3.4 3 0 5.1-.1 6.6-.3 1.5-.1 3.9-.5 7.6-1.1l-.4 18.8v8.1c3.7-9.5 8.3-16.8 13.8-21.8 5.6-5 13-7.4 22.5-7.4-.3 2.6-.5 4.9-.7 6.8-.1 1.9-.3 4.1-.3 6.8 0 .9.1 3 .4 6.1.3 3.2.4 6.5.4 9.6l-2.4 1.8c-3.8-1.6-7.3-2.6-10.7-2.6z"></path>
        <path d="M752.7 296.6c-4.7 0-8.7-1.6-12.1-5s-5-7.4-5-12.1c0-4.7 1.6-8.7 5-12.1 3.2-3.2 7.3-5 12.2-5 4.7 0 8.7 1.6 12.1 5 3.3 3.2 5 7.3 5 12.1 0 4.9-1.6 8.9-5 12.2-3.5 3.2-7.6 4.9-12.2 4.9zM736.3 319c4.1 0 7.6.1 10.6.3 3 .1 5.8.3 8.8.4h3.9c2.2 0 5.6-.3 9.9-.7-.8 10-1.5 19.9-1.9 29.7-.4 9.9-.5 21.1-.5 33.9l1.5 40.5c-3.1-.3-6-.5-8.7-.7-2.7-.1-5.8-.3-9.1-.3h-5c-1.2 0-4.7.3-10.4.9l2.4-65.8-1.5-38.2z"></path>
        <path d="M849.5 326.9c-7.9 0-14.2 3.8-19 11.5-4.7 7.6-7 17.9-7 30.6 0 13.4 2.7 23.8 8.1 31.1 5.4 7.3 13.1 11 23.2 11 9.6 0 17.9-3.5 24.4-10.6l3.8 3.1c-1.6 3.4-2.6 5.7-3.1 6.8-.4 1.2-1.1 3.1-1.8 6-9.2 6.2-20.2 9.2-32.8 9.2-16.4 0-29.5-4.7-39.4-14.4s-14.8-22.3-14.8-38.3c0-17.3 5.1-31 15.3-41.2 10.2-10 24.1-15 41.7-15 15 0 27.2 3 37 9.1-3.7 8.5-6.1 16-7.4 22.5h-5.6c-3.2-14.2-10.8-21.4-22.6-21.4z"></path>
        <path d="M981.4 416.3c-10.6 6.6-21.9 9.9-34 9.9-16 0-28.7-4.9-38.2-14.8-9.5-9.9-14.1-23.2-14.1-39.8 0-17.1 4.3-30.3 13.1-40.2 8.8-9.7 20.9-14.6 36.6-14.6 14.4 0 25.6 4.1 33.6 12.3 8 8.3 11.9 19.9 11.9 34.9l-.5 7.3-33-.3-29.2.3c0 27.2 10 40.9 30.1 40.9 8.9 0 17.3-3.4 25.3-10.2l2.8 2.2c-1.7 3.7-3.2 7.6-4.4 12.1zm-36.3-90.5c-5.4 0-9.7 3.1-12.9 9.3-3.1 6.2-4.7 14.9-4.7 26.1l16.5.3 16.5-.3c0-12.1-1.1-21-3.3-26.7-1.9-5.8-6-8.7-12.1-8.7z"></path>
        <path d="M1176.8 422.8h-8.9c-2.6 0-6.6.3-11.9.9l-11.4-14.5c-8.4 6-16 10.3-22.7 12.7s-14.2 3.8-22.1 3.8c-13.7 0-24.5-3.1-32.5-9.2-8.1-6.2-12.1-14.5-12.1-25.1 0-11.4 3.3-20.2 9.9-26.4 6.6-6.4 16.4-12.9 29.5-19.6-5.3-7.4-9.2-13.8-11.6-18.8-2.4-5-3.8-10.7-3.8-16.8 0-10.2 3.7-18.4 11-24.6 7.3-6.4 17.1-9.5 29-9.5 10.6 0 19.1 2.4 25.6 7.2 6.5 4.7 9.7 11.1 9.7 18.8 0 7.4-2.6 14.4-7.9 20.4-5.3 6.1-11.8 11.6-19.8 16.7l36 41.8c5.3-7.3 9.6-14.1 13.3-20.4 3.7-6.2 7.2-13.4 10.6-21.5 1.9 2.3 4.1 4.7 6.4 7.2 2.3 2.4 4.2 4.2 5.6 5.1-4.1 6.5-8.4 12.7-12.9 18.7-4.6 6-9.8 12.5-15.6 19.2 7.2 9.1 12.6 15.7 16.1 19.9 3.5 4.2 7.4 8.4 11.8 12.5v2.6c-4.1-.1-7.6-.3-10.6-.5-3-.3-5-.3-6-.3h-4.7v-.3zm-62.4-12.5c8.7 0 16.8-2.8 24.4-8.4-8.8-10.4-16.2-19.4-22.3-26.9-6.1-7.6-11.4-14.6-15.6-21.3-11.4 7.9-17.2 16.5-17.2 26.3 0 8.3 3 15.3 9.1 21.4 6.1 5.9 13.3 8.9 21.6 8.9zm8-124.6c-4.5 0-8.1 1.5-11 4.3-3 3-4.3 6.6-4.3 11.2 0 4.2.7 7.9 2 11 1.4 3.1 5.1 9.2 11.1 18.3 11.5-9.6 17.2-19.2 17.2-28.8 0-4.5-1.5-8.1-4.3-11.4-2.9-2.9-6.5-4.6-10.7-4.6z"></path>
        <path d="M1354.4 300.2l25.9 39.4 52.8 81.2v3.8c-11.5-.8-21-1.2-28.3-1.2-5.7 0-9.2 0-10.6.1-1.4 0-6.5.4-15.6 1.2l-62.3-98 1.2 98.3c-4.6-.7-8.4-1.1-11.4-1.2-3-.3-7-.3-12.3-.3-8 0-16.5.5-25.7 1.6l3.5-116.9-2.2-97.2h49.6l-.9 15.4-1.9 73.5v10l80.4-99h34.6v2.8l-76.8 86.5z"></path>
        <path d="M1467.3 296.6c-4.7 0-8.7-1.6-12.1-5s-5-7.4-5-12.1c0-4.7 1.6-8.7 5-12.1 3.3-3.2 7.3-5 12.2-5 4.7 0 8.7 1.6 12.1 5 3.3 3.2 5 7.3 5 12.1 0 4.9-1.6 8.9-5 12.2-3.5 3.2-7.6 4.9-12.2 4.9zm-16.4 22.4c4.1 0 7.6.1 10.6.3s5.8.3 8.8.4h3.9c2.2 0 5.6-.3 9.9-.7-.8 10-1.5 19.9-1.9 29.7-.4 9.9-.5 21.1-.5 33.9l1.5 40.5c-3.1-.3-6-.5-8.7-.7-2.7-.1-5.8-.3-9.1-.3h-5c-1.2 0-4.7.3-10.4.9l2.4-65.8-1.5-38.2z"></path>
        <path d="M1510.6 319c5.7 1.1 11.1 1.5 16.2 1.5 4.6 0 9.2-.5 14.1-1.5-.3 2.8-.5 5.1-.7 7.2-.1 2-.3 5.1-.3 9.3 9.2-12.5 20-18.7 32.5-18.7 11.2 0 19.9 3.1 26 9.5 6 6.4 9.1 15.4 9.1 27.2l-.7 40.9.9 28.6h-32.5l1.8-36.3.3-22.2c0-19.5-6-29.2-17.9-29.2-5.1 0-9.2 1.6-12.3 5-3.1 3.4-4.9 7.3-5.4 11.9-.5 4.6-.8 8.8-.9 12.6-.1 3.9-.3 9.1-.3 15.7l1.4 42.5h-29.8v-48.9l-1.5-55.1z"></path>
        <path d="M1709.7 326.9c7.3 5.7 11 13.1 11 22.2 0 10-4.2 18-12.5 24s-19.4 9.1-33.3 9.1l-5.6-.3c-4.2 0-6.4 2.2-6.4 6.6 0 5.6 7.4 8.8 22.5 9.7 15 .9 26 2.4 33.2 4.6 7.2 2.2 10.8 9.2 10.8 21.1 0 13-5 23.6-15.2 31.6s-23.6 12.1-40.2 12.1c-14.4 0-25.5-2.4-33.2-7.2s-11.5-11.5-11.5-20.3c0-5.4 1.6-9.9 5-13.5s8.8-6.6 16.2-9.1V416c-8-3-11.9-7.7-11.9-14.2 0-9.2 6.6-16 20-20.4v-1.8c-17.9-3.9-26.8-13.8-26.8-29.7 0-10.4 3.9-18.6 11.6-24.4 7.7-5.8 18.8-8.8 33-8.8l46.2 1.5h6.6v9.5l-19.5-.8zm-32.4 92.3H1667c-11.6 0-17.3 5.7-17.3 17.1 0 7 2.4 12.5 7.3 16.4 4.9 3.9 11.6 6 20.4 6 7.4 0 13.9-2 19.4-6 5.4-4.1 8.1-9.5 8.1-16.2 0-6.1-2.2-10.6-6.4-13.1-4.2-2.8-11.3-4.2-21.2-4.2zm-.4-94.3c-9.6 0-14.5 8.8-14.5 26.4 0 15.2 4.6 22.6 13.7 22.6 5.3 0 9.1-2.6 11.4-8 2.3-5.3 3.4-11.5 3.4-18.4-.2-15.1-4.8-22.6-14-22.6z"></path>
        <path d="M185.9 460.1l2.4-265.5 50.8-1.1c41.9 7.1 60.4 88.9-8.7 108.6l-42.9.9" fill="none"></path>
        <path d="M201.4 306.2c-4.8 34.5 33.8 87.6 106.9 149.3l45.1-10.8c-39.8-43.6-107.6-76.3-119.2-116.8l166.4-91.8-42.4-22.5c-57.3 40.7-103.2 84.6-156.8 92.6z" fill="#ffffff"></path>
        <path fill="#ffffff" d="M193.8 189.7V460h-16.2V189.7h16.2z"></path>
        <path d="M239.2 189.7h-53.5l1.6 116.6h51.9c72.9-40.1 35-116.6 0-116.6zm4.7 100.6c-1.8 1.3-4 1.9-6.1 1.9H190v-89.5h48.8c1.3 0 2.6.3 3.8 1 33.6 20.2 29 67.7 1.3 86.6z" fill="#ffffff"></path>
    </g>
</svg>